<svg xmlns="http://www.w3.org/2000/svg" fill-rule="evenodd" clip-rule="evenodd" image-rendering="optimizeQuality" shape-rendering="geometricPrecision" text-rendering="geometricPrecision" viewBox="0 0 500 500"><defs><linearGradient id="a" x1="249.999" x2="249.999" y1="30.694" y2="470.692" gradientUnits="userSpaceOnUse"><stop offset="0" stop-color="#008BFF"/><stop offset="1" stop-color="#0af"/></linearGradient><linearGradient id="b" x1="284.421" x2="215.575" y1="130.457" y2="70.929" gradientUnits="userSpaceOnUse"><stop offset="0" stop-color="#EBECEC"/><stop offset="1" stop-color="#FEFEFE"/></linearGradient><linearGradient id="c" x1="249.997" x2="249.997" y1="448.641" y2="272.235" gradientUnits="userSpaceOnUse"><stop offset="0" stop-color="#EBECEC"/><stop offset="1" stop-color="#FEFEFE"/></linearGradient></defs><g><path fill="url(#a)" stroke="#434242" stroke-linejoin="round" stroke-width="10" d="M55 31h365l50 50v365c0 13-11 25-25 25h-390c-14 0-25-12-25-25v-390c0-14 11-25 25-25z"/><path fill="url(#b)" stroke="#434242" stroke-linejoin="round" stroke-width="10" d="M110 31h280v125c0 8-7 15-15 15h-250c-8 0-15-7-15-15v-125z"/><rect width="320" height="221" x="90" y="250" fill="url(#c)" stroke="#434242" stroke-linejoin="round" stroke-width="10"/><path fill="#434242" d="M290 29h70v102c0 2-2 5-5 5h-60c-3 0-5-3-5-5v-102z"/><line x1="370" x2="130" y1="295" y2="295" fill="none" stroke="#434242" stroke-linecap="round" stroke-width="15"/><line x1="370" x2="130" y1="335" y2="335" fill="none" stroke="#434242" stroke-linecap="round" stroke-width="15"/><line x1="370" x2="130" y1="375" y2="375" fill="none" stroke="#434242" stroke-linecap="round" stroke-width="15"/><line x1="370" x2="130" y1="415" y2="415" fill="none" stroke="#434242" stroke-linecap="round" stroke-width="15"/></g></svg>