<svg xmlns="http://www.w3.org/2000/svg" xmlns:xlink="http://www.w3.org/1999/xlink" id="Layer_1" enable-background="new 0 0 512 512" version="1.1" viewBox="0 0 512 512" xml:space="preserve"><g><g><linearGradient id="SVGID_1_" x1="0" x2="512" y1="256" y2="256" gradientUnits="userSpaceOnUse"><stop offset="0" style="stop-color:#33b49d"/><stop offset="1" style="stop-color:#00a185"/></linearGradient><circle cx="256" cy="256" r="256" fill="url(#SVGID_1_)"/><linearGradient id="SVGID_2_" x1="42.667" x2="469.333" y1="256.001" y2="256.001" gradientUnits="userSpaceOnUse"><stop offset="0" style="stop-color:#00a185"/><stop offset="1" style="stop-color:#33b49d"/></linearGradient><path fill="url(#SVGID_2_)" d="M256,469.3338623c-117.6315308,0-213.3333435-95.7018738-213.3333435-213.3333435 c0-117.6309204,95.7018051-213.333313,213.3333435-213.333313c117.6362,0,213.3333435,95.7024002,213.3333435,213.333313 C469.3333435,373.6319885,373.6362,469.3338623,256,469.3338623z"/></g><polygon id="XMLID_80_" points="248.499 159.501 144 264 248.499 368.499 248.499 313.079 384 313.079 384 214.922 248.499 214.922" opacity=".3"/><polygon id="XMLID_201_" fill="#FFF" points="240.499 151.501 136 256 240.499 360.499 240.499 305.079 376 305.079 376 206.922 240.499 206.922"/></g></svg>