<svg xmlns="http://www.w3.org/2000/svg" xmlns:xlink="http://www.w3.org/1999/xlink" width="16" height="16" version="1.1" viewBox="0 0 16 16"><title/><g id="Icons with numbers" fill="none" fill-rule="evenodd" stroke="none" stroke-width="1"><g id="Group" fill="#000" transform="translate(-672.000000, 0.000000)"><path id="Oval 283 copy 2" d="M677.5,11 C674.462434,11 672,8.53756627 672,5.5 C672,2.46243373 674.462434,0 677.5,0 C680.537566,0 683,2.46243373 683,5.5 C683,6.71930689 682.60323,7.84594308 681.931752,8.7578474 L682.042908,9.00878906 L688,15 L687,16 L681,10 L680.842655,9.86803867 C679.916217,10.5780624 678.757383,11 677.5,11 Z M677.5,10 C679.985281,10 682,7.9852815 682,5.5 C682,3.0147185 679.985281,1 677.5,1 C675.014719,1 673,3.0147185 673,5.5 C673,7.9852815 675.014719,10 677.5,10 Z M675,5 L680,5 L680,6 L675,6 Z M675,5"/></g></g></svg>