<svg xmlns="http://www.w3.org/2000/svg" xmlns:xlink="http://www.w3.org/1999/xlink" id="Layer_1" width="300" height="300" enable-background="new 0 0 300 300" version="1.1" viewBox="0 0 300 300" xml:space="preserve"><g><path fill="#EFC849" d="M151.338,14.523c-74.785,0-135.405,60.626-135.405,135.409c0,74.782,60.62,135.413,135.405,135.413 c74.782,0,135.412-60.631,135.412-135.413C286.75,75.15,226.12,14.523,151.338,14.523z M151.338,266.192 c-64.209,0-116.263-52.054-116.263-116.26S87.129,33.671,151.338,33.671c64.21,0,116.256,52.054,116.256,116.261 S215.548,266.192,151.338,266.192z"/><circle cx="151.341" cy="149.932" r="104.744" fill="#EFC849"/><polygon fill="#FFF" points="184.903 127.376 185.623 127.376 185.623 127.799 224.245 150.229 185.623 172.387 185.623 172.491 185.426 172.491 142.188 197.3 142.188 172.491 78.436 172.491 78.436 127.369 142.188 127.369 142.188 102.564"/></g></svg>